# xmcd
#
# Track frame offsets: 
#        150
#        18968
#        29594
#        43553
#        61248
#        81470
#        98029
#        120138
#        138691
#        152579
#        164283
#        174678
#        187561
#        203070
#        219239
#        230089
#        245033
#        255332
#
# Disc length: 3672 seconds
#
# Revision: 0
# Processed by: cddbd v1.5.2PL0 Copyright (c) Steve Scherf et al.
# Submitted via: ExactAudioCopy v1.3
#
DISCID=e80e5612
DTITLE=Paul Lamb and The King Snakes - Blues Burglars Whoopin'
DYEAR=1999
DGENRE=Harmonica Blues, Electric Blues
TTITLE0=Firing Line
TTITLE1=You Sure Make Lovin'  Hard
TTITLE2=Rainin'  In My Heart
TTITLE3=Tired Of Trying
TTITLE4=The Lamb
TTITLE5=Hey Hey Mama
TTITLE6=Sugar Mama
TTITLE7=Shake Your Money Maker
TTITLE8=Built For Comfort
TTITLE9=El Capo
TTITLE10=Don't Count Me Out
TTITLE11=How Many More Years
TTITLE12=Feel So Good
TTITLE13=Late One Evening
TTITLE14=Spaced Out
TTITLE15=Don't Start Me Talking
TTITLE16=Whoopin'
TTITLE17=Mojo Working
EXTD=
EXTT0=
EXTT1=
EXTT2=
EXTT3=
EXTT4=
EXTT5=
EXTT6=
EXTT7=
EXTT8=
EXTT9=
EXTT10=
EXTT11=
EXTT12=
EXTT13=
EXTT14=
EXTT15=
EXTT16=
EXTT17=
PLAYORDER=
